<?xml version="1.0" standalone="no"?>
<!DOCTYPE svg PUBLIC "-//W3C//DTD SVG 1.1//EN" "http://www.w3.org/Graphics/SVG/1.1/DTD/svg11.dtd" >
<!--
2013-9-30: Created.
-->
<svg>
<metadata>
Created by iconfont
</metadata>
<defs>

<font id="iconfont" horiz-adv-x="1024" >
  <font-face
    font-family="iconfont"
    font-weight="500"
    font-stretch="normal"
    units-per-em="1024"
    ascent="896"
    descent="-128"
  />
    <missing-glyph />
    
    <glyph glyph-name="xingwei" unicode="&#58938;" d="M511.447 895C230.087 895 2 666.916 2 385.557S230.087-123.89 511.447-123.89s509.447 228.087 509.447 509.447S792.808 895 511.447 895zM805.359 424.745c-9.602 0-18.872 1.405-27.641 3.981l-51.412-81.495c12.702-16.522 20.271-37.194 20.271-59.645 0-54.112-43.864-97.971-97.971-97.971s-97.971 43.859-97.971 97.971c0 4.518 0.332 8.956 0.924 13.311l-89.957 97.306c-14.218-8.037-30.63-12.645-48.127-12.645-14.02 0-27.34 2.966-39.4 8.272l-66.864-105.985c5.318-12.072 8.293-25.41 8.293-39.449 0-54.104-43.864-97.966-97.971-97.966s-97.971 43.864-97.971 97.966c0 54.112 43.864 97.974 97.971 97.974 9.773 0 19.204-1.45 28.111-4.114l73.172 115.987c-2.151 8.069-3.313 16.541-3.313 25.286 0 54.107 43.864 97.971 97.971 97.971s97.971-43.864 97.971-97.971c0-6.137-0.592-12.134-1.672-17.959l87.434-94.578c14.943 9.229 32.544 14.566 51.396 14.566 1.969 0 3.921-0.075 5.862-0.19l61.442 97.392c-5.461 12.205-8.522 25.719-8.522 39.957 0 54.107 43.864 97.966 97.971 97.966 54.107 0 97.971-43.859 97.971-97.966C903.329 468.605 859.466 424.745 805.359 424.745z"  horiz-adv-x="1024" />

    
    <glyph glyph-name="jiankong" unicode="&#58904;" d="M509.96224 551.41376c-83.54816 0-151.296-72.67328-151.296-162.36544 0-89.66656 67.74272-162.33472 151.296-162.33472 83.584 0 151.33184 72.66816 151.33184 162.33472-0.00512 89.69216-67.74784 162.36544-151.33184 162.36544z m0-243.49184c-41.75872 0-75.648 36.352-75.648 81.15712 0 44.86656 33.85856 81.18272 75.648 81.18272 41.79456 0 75.648-36.352 75.648-81.18272 0-44.81024-33.85344-81.15712-75.648-81.15712zM512 861.01504C248.5504 861.01504 34.98496 647.4496 34.98496 384c0-263.44448 213.56544-477.00992 477.01504-477.00992 263.44448 0 477.00992 213.56544 477.00992 477.00992 0 263.4496-213.56544 477.01504-477.00992 477.01504z m401.3568-481.44384c-0.03584-0.18944-0.03584-0.37888-0.06656-0.5376 0-0.26112-0.06656-0.54784-0.09728-0.79872l-0.1024-0.93184v-0.1024c-1.01888-6.85056-3.96288-13.28128-8.44288-18.24256-8.47872-11.008-17.73056-21.34016-27.008-31.488-50.26816-54.77888-107.96544-103.60832-171.136-139.06944-40.35072-22.65088-83.49184-40.92928-128.22528-49.6896-49.18272-9.67168-98.432-9.1904-147.35872 2.24256-84.66944 19.7376-161.34144 68.82816-228.41344 127.47776-31.13472 27.26912-61.76256 57.0624-87.48544 90.53184-11.23328 14.65856-11.23328 32.00512 0 46.65856 8.448 11.008 17.72544 21.376 27.008 31.488 50.27328 54.784 107.96544 103.64928 171.136 139.06944 40.35072 22.656 83.49184 40.92928 128.22528 49.69984 49.18272 9.66144 98.40128 9.18016 147.328-2.24256 84.66944-19.74272 161.34144-68.864 228.41344-127.51872 31.13472-27.23328 61.76256-57.05728 87.48544-90.52672 4.51584-4.96128 7.45984-11.36128 8.448-18.24256 0-0.03584 0-0.06656 0.03072-0.09728l0.1024-0.93184 0.09728-0.79872c0-0.15872 0.03072-0.34816 0.03072-0.54272 0.03584-0.384 0.06656-0.70656 0.06656-1.08544 0.03072-0.57856 0.06656-1.12128 0.06656-1.664 0-0.57344-0.03584-1.12128-0.03584-1.664v0.09728a11.84256 11.84256 0 0 1-0.06656-1.09056z"  horiz-adv-x="1024" />

    
    <glyph glyph-name="jiankong1" unicode="&#58934;" d="M938.697 453.596c0.6 243.698-188.799 441.697-423.097 442.397h-3.6c-234.298 1.4-425.397-194.999-426.697-438.697v-3.7c0-192.499 118.599-356.297 284.498-417.797-90.799-32.6-150.199-94.199-150.199-163.799h572.796c0 69.699-55.3 131.199-142.099 163.899 169.999 61.3 288.398 225.198 288.398 417.697zM520.1 142.298h-0.1c-122.599 0-225.298 106.599-225.298 233.498s102.699 233.498 225.298 233.498c124.199 0.3 224.998-104.199 225.298-233.198v-0.2c-0.2-129.199-100.999-233.698-225.198-233.598zM512 478.196c-59.3 0-110.499-53.3-110.499-114.599 0-65.5 51.3-114.599 110.499-114.599 60.9 0 110.299 51.3 110.299 114.599 0 63.2-49.4 114.599-110.299 114.599z"  horiz-adv-x="1024" />

    
    <glyph glyph-name="hangwei" unicode="&#58886;" d="M524.8 851.2c256 0 467.2-211.2 467.2-467.2s-211.2-467.2-467.2-467.2S57.6 128 57.6 384 262.4 851.2 524.8 851.2m0 44.8c-281.6 0-512-230.4-512-512s230.4-512 512-512 512 230.4 512 512-230.4 512-512 512zM716.8 614.4c-38.4 0-70.4-32-70.4-70.4 0-12.8 6.4-25.6 12.8-38.4L582.4 384H576h-12.8L512 435.2v19.2c0 38.4-32 70.4-70.4 70.4-38.4 0-70.4-32-70.4-70.4 0-12.8 6.4-25.6 12.8-38.4l-76.8-128h-6.4c-38.4 0-70.4-32-70.4-70.4s32-70.4 70.4-70.4c38.4 0 70.4 32 70.4 70.4 0 12.8-6.4 25.6-12.8 38.4l76.8 128h25.6l51.2-51.2v-19.2c0-38.4 32-70.4 70.4-70.4 38.4 0 70.4 32 70.4 70.4 0 12.8-6.4 25.6-12.8 38.4l76.8 128h6.4c38.4 0 70.4 32 70.4 70.4-6.4 32-38.4 64-76.8 64z m-409.6-396.8c-6.4 0-6.4 0 0 0-6.4 6.4 0 12.8 0 12.8v-12.8zM441.6 448s-6.4 0 0 0c-6.4 6.4 0 12.8 0 12.8s6.4-6.4 0-12.8c6.4 0 6.4 0 0 0z m140.8-140.8c-6.4 0-6.4 6.4 0 0C576 320 576 320 582.4 320s6.4 0 0-12.8c6.4 6.4 0 0 0 0z m134.4 230.4s0 6.4 0 0c-6.4 6.4 0 12.8 0 12.8 6.4 0 6.4 0 0-12.8 6.4 6.4 6.4 0 0 0z"  horiz-adv-x="1036" />

    
    <glyph glyph-name="hangwei1" unicode="&#58899;" d="M87.280941 262.083765C39.152941 262.083765 0 231.062588 0 181.488941v-219.617882C0-87.642353 39.152941-128 87.280941-128h247.145412c48.188235 0 87.341176 40.357647 87.341176 89.871059v219.617882c0 49.573647-39.152941 80.594824-87.341176 80.594824H87.341176zM334.426353 173.176471c14.336 0 25.901176-10.420706 25.901176-23.250824v-191.427765c0-12.890353-11.565176-23.311059-25.901176-23.311058H87.341176c-14.336 0-25.901176 10.420706-25.901176 23.311058v191.427765c0 12.830118 11.565176 23.250824 25.901176 23.250824h247.145412z m328.824471 323.463529c48.128 0 87.280941 40.357647 87.280941 89.871059V806.128941C750.531765 855.642353 711.378824 896 663.190588 896H416.105412c-48.128 0-87.280941-40.357647-87.280941-89.871059v-219.617882c0-49.573647 39.152941-89.871059 87.341176-89.871059h247.145412zM416.045176 559.826824a26.322824 26.322824 0 0 0-25.901176 26.684235V806.128941c0 14.697412 11.625412 26.684235 25.901176 26.684235h247.205648c14.275765 0 25.901176-11.986824 25.901176-26.684235v-219.617882a26.322824 26.322824 0 0 0-25.901176-26.684235H416.045176z m580.909177-288.466824h-93.364706l-61.921882-0.180706-91.858824 0.180706c-48.188235 0-87.341176-40.357647-87.341176-89.871059v-219.617882c0-49.513412 39.152941-89.871059 87.341176-89.871059h247.145412C1045.082353-128 1084.235294-87.642353 1084.235294-38.128941v219.617882c0 49.573647-39.152941 89.871059-87.280941 89.871059z m0-336.112941h-247.145412c-14.336 0-25.901176 10.360471-25.901176 23.250823v191.36753c0 12.890353 11.565176 23.311059 25.901176 23.311059h247.145412c14.336 0 25.901176-10.420706 25.901176-23.311059v-191.36753c0-12.890353-11.565176-23.311059-25.901176-23.311058zM903.529412 233.411765V388.096H576.873412V534.588235H516.216471l0.240941-146.55247H180.705882V233.411765h61.259294V328.101647h599.883295l-0.180706-94.509176zM60.235294-44.212706c0-13.010824 11.685647-23.491765 26.142118-23.552h248.95247c14.396235 0 26.081882 10.541176 26.081883 23.552V149.684706c0 13.010824-11.685647 23.491765-26.081883 23.552H86.377412c-14.456471 0-26.142118-10.541176-26.142118-23.552v-193.837177M748.965647-67.764706h248.952471c14.396235 0 26.081882 10.541176 26.081882 23.552V149.684706c0 13.010824-11.685647 23.491765-26.081882 23.552h-248.952471c-14.456471 0-26.142118-10.541176-26.142118-23.552v-193.837177c0-13.010824 11.685647-23.491765 26.142118-23.552z"  horiz-adv-x="1084" />

    
    <glyph glyph-name="jiankong2" unicode="&#59221;" d="M512 875.52C240.681 875.52 20.48 654.664 20.48 384S240.681-107.52 512-107.52 1003.52 112.681 1003.52 384c0 270.664-220.856 491.52-491.52 491.52z m430.08-471.04h-62.116c-7.782 25.19-28.467 43.93-53.719 50.38-32.358 136.357-150.118 239.72-293.765 250.676V814.08c220.017-12.902 396.657-189.297 409.6-409.6zM259.4 533.975c7.577-2.519 15.155-3.789 22.732-3.789 41.063 0 74.548 33.403 74.548 74.363 0 9.462-1.884 17.654-5.038 25.846A269.23 269.23 0 0 0 471.04 670.72v-101.458c-73.933-10.711-132.67-69.304-143.421-144.302H225.28a279.081 279.081 0 0 0 34.12 109.015zM736.522 424.96H681.76c-11.08 74.998-71.7 133.591-149.279 144.302V670.72c118.64-10.076 216.433-91.996 245.76-200.397a78.561 78.561 0 0 1-41.718-45.363zM491.52 404.48h-102.4c10.035 51.528 50.872 91.689 102.4 102.4v-102.4z m0-40.96v-102.4a130.13 130.13 0 0 0-102.4 102.4h102.4z m40.96 0h102.4c-10.035-51.528-50.872-91.689-102.4-102.4v102.4z m0 40.96v102.4a130.13 130.13 0 0 0 102.4-102.4h-102.4z m-205.742-40.96A169.78 169.78 0 0 1 471.04 219.218V117.76c-130.458 11.346-234.414 115.302-245.76 245.76h101.458zM532.48 219.218c77.169 10.711 137.462 69.304 148.48 144.302h55.788c7.127-19.538 22.036-34.652 41.492-42.844-29.184-109.65-126.444-192.84-245.105-202.916V219.218h-0.655zM471.04 814.08v-107.889c-56.197-4.526-109.179-22.61-153.764-52.326a76.493 76.493 0 0 1-40.059 11.612 76.39 76.39 0 0 1-76.226-76.226c0-16.16 5.16-31.007 13.557-43.295-24.535-41.984-40.673-89.784-44.564-141.476H61.44c12.288 220.303 189.297 396.698 409.6 409.6zM61.44 363.52h108.052C181.78 202.404 310.56 73.626 471.04 61.972V-46.08c-220.017 11.653-397.312 188.948-409.6 409.6z m471.04-409.6V61.972c144.937 11.019 263.373 115.835 294.42 253.666a76.39 76.39 0 0 1 52.43 47.882h62.75c-12.288-220.017-188.948-397.312-409.6-409.6z"  horiz-adv-x="1024" />

    
    <glyph glyph-name="jiankong3" unicode="&#59003;" d="M235.584 339.136c39.616-14.976 83.904 4.992 98.88 44.608C362.176 457.088 433.536 506.368 512 506.368s149.824-49.28 177.536-122.688c11.584-30.656 40.768-49.6 71.744-49.6 9.024 0 18.176 1.6 27.136 4.992 39.616 14.976 59.584 59.2 44.608 98.816-24.384 64.512-67.2 119.616-123.776 159.424C651.264 638.208 583.04 659.776 512 659.776c-71.04 0-139.264-21.568-197.248-62.336-56.576-39.808-99.392-94.976-123.776-159.488-14.976-39.616 4.992-83.84 44.608-98.816z m-8.704 85.248c32.64 86.208 104.448 154.496 192.192 182.528 20.096 6.528 41.728-4.608 48.192-24.768 6.464-20.16-4.672-41.728-24.832-48.192-65.664-21.056-119.424-72.128-143.872-136.64-5.76-15.36-20.352-24.832-35.84-24.832-4.48 0-9.088 0.768-13.568 2.496-19.776 7.488-29.76 29.632-22.272 49.408z m318.144-92.672c2.176-4.672 3.264-9.792 3.264-15.104 0-19.968-16.256-36.288-36.288-36.288-20.032 0-36.288 16.32-36.288 36.288v144.64c0 3.008 2.112 5.632 5.12 6.272 2.944 0.576 5.888-0.96 7.104-3.776l57.088-132.032z m346.56 505.92H132.416c-40.96 0-74.176-33.216-74.176-74.176v-758.912c0-40.96 33.216-74.176 74.176-74.176h759.168c40.96 0 74.176 33.216 74.176 74.176V763.456c-0.064 40.96-33.28 74.176-74.176 74.176z m-446.72-823.936c-23.488 0-42.56 19.136-42.56 42.56s19.136 42.56 42.56 42.56c23.488 0 42.56-19.072 42.56-42.56s-19.072-42.56-42.56-42.56z m134.272 0c-23.488 0-42.56 19.136-42.56 42.56s19.136 42.56 42.56 42.56c23.488 0 42.56-19.072 42.56-42.56s-19.136-42.56-42.56-42.56z m310.4 168.448H134.464V761.472H889.6v-579.328z"  horiz-adv-x="1024" />

    
    <glyph glyph-name="guanlihoutai" unicode="&#58944;" d="M928.3 781.687a103.96 103.96 0 0 1-74.381 31.558h-683.73a103.955 103.955 0 0 1-74.38-31.558 109.075 109.075 0 0 1-30.808-76.186v-442.743a109.065 109.065 0 0 1 30.718-76.222 103.957 103.957 0 0 1 74.38-31.558h258.044v-85.789h-83.821c-31.6 0-57.216-25.616-57.216-57.216s25.616-57.216 57.216-57.216h335.286c31.6 0 57.216 25.616 57.216 57.216s-25.616 57.216-57.216 57.216h-83.821v85.824h258.008a103.955 103.955 0 0 1 74.38 31.558A109.068 109.068 0 0 1 959 262.757V705.5a109.07 109.07 0 0 1-30.7 76.187zM757.707 585.382L641.79 465.175c-18.835-18.753-49.287-18.753-68.123 0l-42.375 43.896-84.804-153.767a47.705 47.705 0 0 0-41.642-24.871 49.225 49.225 0 0 0-44.504 30.879l-31.004 80.46-35.349-36.69 0.053-0.055c-7.032-6.65-17.962-6.886-25.274-0.543-7.855 6.813-8.7 18.704-1.886 26.559l55.875 57.913a18.837 18.837 0 0 0 6.797 4.518c9.709 3.749 20.619-1.085 24.368-10.794l41.661-107.941a10.158 10.158 0 0 1 8.689-6.831 10.174 10.174 0 0 1 9.191 5.364l97.195 176.296a18.86 18.86 0 0 0 3.42 4.459c7.501 7.23 19.442 7.011 26.672-0.49l60.131-62.365c0.085-0.088 0.171-0.175 0.26-0.26 3.806-3.664 9.862-3.547 13.526 0.26l115.915 120.207c7.023 6.617 17.911 6.847 25.207 0.535 7.857-6.797 8.714-18.675 1.918-26.532z"  horiz-adv-x="1024" />

    
    <glyph glyph-name="yunwei" unicode="&#58979;" d="M897.01376 801.28H130.82624c-20.89984 0-34.82624-13.93152-34.82624-34.82624v-557.22496c0-20.89472 13.93152-34.82624 34.82624-34.82624h257.7152v-139.30496H235.30496v-69.65248h557.22496v69.65248h-153.2416v139.30496h257.72032c20.89472 0 34.82624 13.93152 34.82624 34.82624V766.45376c0.00512 20.89472-13.9264 34.82624-34.82112 34.82624z m-138.2656-343.22944l-54.80448 44.69248-157.07648-148.38272-114.21696 105.95328-102.93248-99.9168-57.10848 46.57152L431.8976 557.9776l112.6656-102.17984 104.47872 102.17984-43.60704 40.59136h153.30816v-140.5184z"  horiz-adv-x="1024" />

    
    <glyph glyph-name="yunwei1" unicode="&#58885;" d="M965.230928 102.845876v-21.00784c0-43.554012-114.124971-80.858551-114.124971-80.858551l-47.544058 6.05718s-76.051265 9.614572-123.643398 9.614572-123.643397-9.614572-123.643397-9.614572l-47.207548-5.912962s-114.461481 37.30454-114.461481 80.714333v21.00784c0 40.477348 52.880146 81.33928 114.605699 112.682785 2.980517 1.490259 40.140838-208.924651 40.140839-208.924652l16.440918 0.432656s-31.776161 217.241256-28.507206 218.731515c17.113938 7.835876 28.362988 15.142951 45.188488 21.248204 6.249472 2.259424 36.102718 18.459978 19.229145 62.158209-38.698653 39.419746-65.04258 77.63767-65.042581 163.784235h287.427633c0-85.281254-27.06502-123.835688-65.475236-163.447725-16.344773-49.563119 9.614572-61.292897 13.94113-62.494719 16.681283-5.528379 33.266419-14.133421 49.947702-21.248204 4.134266-1.778696-28.507206-218.731515-28.507207-218.731515l17.354303 0.432656s35.429698 209.74189 39.035163 207.963194c62.783156-30.718558 114.797991-71.292052 114.79799-112.586639zM1000.997136 359.603023l-48.842026-48.986244-47.688277 8.605042-8.55697 47.640204L944.799962 415.896343a53.216656 53.216656 0 0 1-38.458288 15.383315 89.223229 89.223229 0 0 1-55.860664-27.641895c-18.700343-19.709873-38.458288-56.485611-20.911694-97.299469a14.421858 14.421858 0 0 0-2.547862-18.31576c-6.970565-6.922492-185.897751-175.369795-185.897751-175.369795-16.729355-14.421858-15.527534-41.150369 0-56.677902s42.256044-16.440918 56.725975 0.240364c0 0 167.005117 177.869584 175.225577 185.993897a14.421858 14.421858 0 0 0 18.363832 2.499789c30.766631-15.912117 74.609079-2.067133 97.347543 20.67133s26.872729 44.70776 27.593822 55.908737a50.668795 50.668795 0 0 1-15.575607 38.458288z m-320.453687-283.629876a13.893057 13.893057 0 1 0 0 19.6618 14.037275 14.037275 0 0 0 0-19.6618z m0 0M843.558518 562.326276c0 60.619877-42.01568 113.740388-104.414252 132.44073-9.614572 2.932444-30.045538-109.029247-30.045538-109.029247V708.852354a17.065865 17.065865 0 0 1-16.392846 17.354303h-24.613304a17.065865 17.065865 0 0 1-16.392846-17.354303V585.93005s-20.479039 111.913619-30.237829 108.981175c-62.254354-18.796488-104.270034-71.820853-104.270034-132.392658 0-15.479461-37.785268 6.441763-37.785268-61.196751h401.985259c0 68.311535-37.833341 45.71729-37.833342 61.196751zM481.617952 79.001737H249.858692c-11.056758 0-19.854091 11.922069-19.854091 26.872729s8.797333 26.872729 19.854091 26.872729h231.75926c11.056758 0 19.902164-11.970142 19.902164-26.872729s-8.845406-26.872729-19.902164-26.872729z m0 0M520.364678-10.606075H278.462044a26.968875 26.968875 0 0 0 0 53.745458h241.902634a26.968875 26.968875 0 0 0 0-53.745458z m0 0M453.927985-58.871227a24.757523 24.757523 0 0 1-14.037276-4.807286 63.456176 63.456176 0 0 0-31.43965-12.354725h-1.297968a43.265574 43.265574 0 0 0-18.988779 5.576452c-0.576874 0.240364-2.69208 1.778696-4.134266 2.740153-4.03812 2.740153-5.095723 3.461246-6.537909 3.557392a26.295855 26.295855 0 0 1-12.306653 2.980517 29.660955 29.660955 0 0 1-27.449603-19.229144 22.209662 22.209662 0 0 1 8.07624-25.190179 101.481808 101.481808 0 0 1 62.494719-22.401953 103.741233 103.741233 0 0 1 58.745035 18.844561 26.72851 26.72851 0 0 1 10.431811 30.622412 25.574762 25.574762 0 0 1-23.69992 19.469509zM686.648702 788.220647a384.592498 384.592498 0 0 1-26.295855 22.35388 404.244683 404.244683 0 1 1-451.356086-668.693489 26.122792 26.122792 0 0 1 26.872729 44.803906 357.325572 357.325572 0 0 0-174.744848 304.637717 352.75865 352.75865 0 0 0 572.595841 275.553636c2.259424-1.778696 4.470776-3.653537 6.682127-5.480306l3.941975-3.3651c2.740153-2.307497 5.480306-4.807286 8.124313-7.162857a25.334397 25.334397 0 1 1 34.179804 37.352613z"  horiz-adv-x="1024" />

    
    <glyph glyph-name="yunwei2" unicode="&#58925;" d="M928.190006-128h-744.893378v97.089005h229.350811l4.894175 91.132794H0V896h1116.524371v-835.778201H697.819575v-91.132794h230.370431v-97.089005zM555.394199 757.932071v-558.262186h97.425072v558.262186z m186.562674-139.565546V199.67314799999997h97.426703V618.366525z m-373.122085-94.052986v-324.646916h97.425072v324.646916z m-186.55778-138.554083V199.67314799999997h97.425072V385.759456z"  horiz-adv-x="1116" />

    
    <glyph glyph-name="yunwei3" unicode="&#58968;" d="M981.66308 144.59L771.42308 354.87c54.16 142.59 24.61 310-90 424.68C564.05308 896.84 383.68308 929.13 232.63308 859.93a36.57 36.57 0 0 1-10.64-59.13L404.05308 618.74A89.63 89.63 0 0 0 277.29308 492L95.23308 674a36.56 36.56 0 0 1-59.09-10.6c-69.31-151.08-37-331.46 80.31-448.79a398.4 398.4 0 0 1 282.45-116.79c48.34 0 96.53 9.44 142.3 26.8L751.45308-85.63a145 145 0 0 1 204.85 0l25.36 25.33a144.84 144.84 0 0 1 0 204.89zM168.18308 266.34c-82.81 82.85-113.68 204.18-84 315.29l141.38-141.41c63.45-63.45 166.77-63.45 230.22 0a162.72 162.72 0 0 1 0 230.26L314.37308 811.84c111.11 29.69 232.44-1.21 315.32-84 127.19-127.22 127.19-334.22 0-461.44s-334.32-127.28-461.51-0.06z m761.75-274.91l-25.36-25.33a71.77 71.77 0 0 0-101.39 0L610.26308 159c25.18 15.72 49.3 33.73 71.16 55.59s39.87 46 55.59 71.17l192.92-192.9a71.71 71.71 0 0 0 0-101.43z"  horiz-adv-x="1024" />

    
    <glyph glyph-name="baseline-web-px" unicode="&#58900;" d="M853.333333 725.333333H170.666667c-46.933333 0-84.906667-38.4-84.906667-85.333333L85.333333 128c0-46.933333 38.4-85.333333 85.333334-85.333333h682.666666c46.933333 0 85.333333 38.4 85.333334 85.333333V640c0 46.933333-38.4 85.333333-85.333334 85.333333z m-213.333333-597.333333H170.666667v170.666667h469.333333v-170.666667z m0 213.333333H170.666667V512h469.333333v-170.666667z m213.333333-213.333333h-170.666666V512h170.666666v-384z"  horiz-adv-x="1024" />

    
    <glyph glyph-name="pc" unicode="&#58884;" d="M652.8 96H384h-6.4L256-12.8c-6.4-6.4 0-19.2 6.4-19.2h492.8c6.4 0 12.8 12.8 6.4 19.2l-108.8 108.8zM915.2 800H108.8c-25.6 0-44.8-19.2-44.8-44.8v-550.4c0-25.6 19.2-44.8 44.8-44.8h806.4c25.6 0 44.8 19.2 44.8 44.8V755.2c0 25.6-19.2 44.8-44.8 44.8zM192 672h256v-256H192v256z m640-384H192v64h640v-64z m0 128H512v64h320v-64z m0 128H512v64h320v-64z"  horiz-adv-x="1024" />

    
    <glyph glyph-name="jiankong4" unicode="&#58901;" d="M1126.108262 896H103.566952C46.678063 896 0 850.780627 0 793.891738v-615.566952c0-55.430199 46.678063-100.649573 103.566952-100.649572h408.433048v-103.566952H307.783476c-29.173789 0-51.054131-21.880342-51.054131-51.054131 0-27.7151 21.880342-51.054131 51.054131-51.054131h614.108262c29.173789 0 51.054131 23.339031 51.054131 51.054131 0 29.173789-21.880342 51.054131-51.054131 51.054131H717.675214v103.566952h408.433048c56.888889 0 103.566952 45.219373 103.566952 100.649572V793.891738c0 56.888889-46.678063 102.108262-103.566952 102.108262z m-100.649573-459.487179H805.196581l-40.843305-119.612536c-5.834758-18.962963-20.421652-32.091168-39.384615-35.008547h-7.293447c-17.504274 0-33.549858 8.752137-42.301995 23.339031L503.247863 560.501425l-107.94302-110.860399c-10.210826-7.293447-23.339031-13.128205-36.467236-13.128205H204.216524c-27.7151 0-51.054131 21.880342-51.054131 49.595441 0 29.173789 23.339031 51.054131 51.054131 51.054131h132.740741l138.575499 140.034188c10.210826 10.210826 26.25641 16.045584 40.843304 14.586895 16.045584-1.458689 29.173789-10.210826 37.925926-21.880342l147.327636-220.262108 18.962963 52.51282c7.293447 21.880342 26.25641 35.008547 46.678062 35.008547h258.188034c27.7151 0 49.595442-21.880342 49.595442-51.054131 0-27.7151-21.880342-49.595442-49.595442-49.595441z"  horiz-adv-x="1229" />

    
    <glyph glyph-name="user" unicode="&#58898;" d="M345.763 694.345c23.813 29.027 53.189 47.912 80.492 60.17 13.139 5.898 26.896 10.092 40.59 12.89 15.122 3.09 30.256 4.467 44.417 4.553h1.475c14.16-0.086 29.293-1.463 44.417-4.553 13.694-2.798 27.451-6.992 40.59-12.89 27.304-12.258 56.68-31.143 80.49-60.17 18.92-23.064 34.2-52.305 41.966-89.354 5.514-26.3 7.274-55.944 4.764-84.953-2.38-27.533-8.61-54.831-19.124-78.637-5.731-12.974-13.662-28.107-24.632-45.047-8.782-13.558-19.43-28.127-32.337-43.444-2.282-4.034-10.18-20.395 5.69-29.87 18.242-10.895 62.59-37.639 103.817-62.848 27.008-16.514 53.83-33.085 73.069-45.34 14.011-8.926 30.844-20.164 44.925-34.572 15.694-16.056 27.712-35.671 29.183-59.825 0.433-7.097 0.631-15.473 0.665-24.23a667.064 667.064 0 0 0-0.478-27.581c-0.74-19.305-4.74-36.207-14.569-49.252-10.765-14.29-27.005-22.82-51.153-23.353h-0.405c-94.846 0.344-203.744 0.516-327.617 0.516s-232.77-0.172-327.616-0.516h-0.404c-24.148 0.533-40.388 9.063-51.152 23.353-9.828 13.045-13.83 29.947-14.57 49.252a667.115 667.115 0 0 0-0.477 27.583c0.032 8.755 0.233 17.13 0.664 24.228 1.472 24.154 13.49 43.767 29.184 59.825 14.082 14.408 30.913 25.647 44.925 34.573 19.237 12.253 46.057 28.822 73.062 45.336 41.229 25.21 85.58 51.955 103.824 62.85 15.869 9.477 7.971 25.837 5.69 29.87-12.906 15.318-23.555 29.887-32.337 43.445-10.971 16.94-18.903 32.073-24.632 45.047-10.515 23.806-16.744 51.104-19.125 78.637-2.51 29.009-0.748 58.653 4.764 84.953 7.768 37.049 23.045 66.291 41.965 89.354"  horiz-adv-x="1024" />

    
    <glyph glyph-name="yunwei4" unicode="&#59193;" d="M597.4 362.3l-59.7-56.7L659 190.4c8-7.8 19.2-11.8 30-11.8s21.6 4 29.7 11.7l0.3 0.2c8.2 7.5 12 18.1 12 28.3 0 9.9-3.8 20-11.5 27.5l-122.1 116z m89.4-139.1c-4.5-4.2-11.9-4.2-16.7 0.3l-73.2 69.4c-4.5 4.4-4.5 11.4 0.3 16 4.5 4.3 12.2 4.3 17 0l72.8-69.6c4.6-4.4 4.6-11.4-0.2-16.1zM583.9 403.1l42.1 39.7h0.2c4.1 4.3 10.5 6.4 16.8 5.5 2-0.3 3.8-0.5 5.9-0.5 1.4-0.2 3.4-0.3 5.7-0.3 21.2 0 40.4 8.2 54.3 21.1v0.3c13.2 12.4 21.5 29.6 22.2 48.9-8.6-8.3-17.2-16.4-25.9-24.8-5-5.2-12.4-7.4-20.1-5.8l-20.1 5.2-20.3 5.2c-6.8 1.7-12.3 6.4-14.2 13.4l-5.4 19.3-5.5 19.3c-1.5 5.9-0.2 13.2 5.2 17.9 8.9 8.5 17.9 17 26.9 25.5-19.4-0.7-37.8-8.3-51.5-21.5-14.5-13.6-22.7-32.2-22.6-51.6h0.3v-5.2l0.6-4.4c1.4-5.9-0.6-12.4-5.4-17.1L304.3 238.3h-0.2c-12.4-12.2-13.8-26.1-8.8-37.5 2.1-4.4 5.4-8.9 9.2-12.6 4.1-3.8 8.6-6.7 13.6-8.7 12-5 26.4-3.6 39.2 8.2L495 318.5l0.6 0.5 87.7 83.4 0.6 0.7zM473.7 452.5l-54.2 51.6c-2.7 2.6-4.5 5.9-5.4 9.4l-11.7 37.7-81.4 32.6-8.4-7.8-8.3-8.1 34.6-77.3 41-11.4c3.4-1 6.2-2.5 8.5-5l54-51.3 31.3 29.6zM519.8 832.5h-15.9C262.2 832.5 64.4 634.7 64.4 393v-16c0-241.7 197.8-439.5 439.5-439.5h15.9c241.7 0 439.5 197.8 439.5 439.5v16c0.1 241.7-197.7 439.5-439.5 439.5zM747 163.7l-0.3-0.3c-16.1-15.1-36.8-22.6-57.7-22.6-20.9 0-42.3 7.5-58 22.8L509.5 279l-124-118c-25.9-24.6-57.1-26.7-82.7-16.2-9.9 3.9-18.8 9.8-26.2 16.8h-0.2c-7.3 7.1-13.4 15.4-17.5 24.7-11 24.3-8.8 54.1 17.2 78.5v0.3l138.3 131.3-50.5 48-45 12.7c-5.7 1.5-10.4 5.4-12.7 10.6l-43.1 96c-4 7-2.7 16.1 3.5 22l18.1 17 17.8 16.9c5.5 5.2 14.2 7.2 21.8 4l102.4-41.5c5.5-2.2 9.7-6.6 11.3-12.1l13.3-42.7 50.6-48 36.4 34.2c-0.2 2.4-0.3 4.7-0.3 6.4h0.2c0 30.8 13 58.6 34.1 78.4v0.2c20.9 19.9 50.2 32.3 82.3 32.3 7.6 0 15.4-0.5 23-2.3 8-1.3 15.4-3.6 22.5-6.4 9.9-4 14.7-15.2 10.3-24.8-1-2.2-2.4-4.2-4.1-5.9-15.1-14.4-30.2-28.6-45.2-43l2.5-8.6 2.3-8.7 9.4-2.4 9-2.3c15 14.4 30.1 28.5 45.2 43 7.7 7.4 20.3 7.4 28.3 0 2.3-2.3 4-5.1 4.8-8 2.7-6.1 4.8-12.5 6.1-19.1v-0.3h0.2c1.4-6.9 2.3-14.2 2.3-22 0-30.2-13.2-58-34.2-78.2-20.9-20-50.3-32.3-82.3-32.3-2.3 0-4.5 0.2-6.8 0.2l-22-20.7L747 273.9l1-1.1c14.8-14.5 23.1-33.9 23-54.1 0.1-19.8-7.9-39.8-24-55z"  horiz-adv-x="1024" />

    
    <glyph glyph-name="jiankong5" unicode="&#58997;" d="M691.2 245.76m-25.6 0a25.6 25.6 0 1 1 51.2 0 25.6 25.6 0 1 1-51.2 0ZM988.16 373.76c-20.48 0-35.84-15.36-35.84-35.84V281.6h-153.6c-10.24 20.48-20.48 40.96-40.96 56.32l179.2 117.76c15.36 10.24 20.48 35.84 10.24 51.2l-30.72 51.2 5.12 5.12c10.24 5.12 15.36 15.36 15.36 25.6s0 20.48-5.12 30.72l-107.52 163.84c-30.72 46.08-92.16 56.32-138.24 25.6l-665.6-409.6c-15.36-10.24-20.48-25.6-20.48-35.84 0-10.24 5.12-25.6 15.36-30.72l112.64-87.04c5.12-5.12 15.36-5.12 20.48-5.12 10.24 0 15.36 5.12 25.6 10.24 0 0 61.44 46.08 158.72 107.52 30.72 20.48 66.56 20.48 97.28 5.12 15.36-10.24 30.72-20.48 46.08-35.84 10.24-15.36 30.72-15.36 46.08-5.12l322.56 199.68 10.24-20.48L409.6 199.68l-71.68 107.52c-10.24 15.36-35.84 20.48-51.2 10.24-10.24-5.12-15.36-15.36-15.36-25.6s0-20.48 5.12-25.6l35.84-56.32-20.48-15.36-30.72 56.32c-10.24 15.36-30.72 25.6-51.2 15.36-15.36-10.24-25.6-30.72-15.36-51.2l51.2-87.04c5.12-10.24 20.48-20.48 30.72-20.48 5.12 0 15.36 0 20.48 5.12l61.44 30.72 10.24-15.36c5.12-10.24 20.48-15.36 30.72-15.36 5.12 0 15.36 0 20.48 5.12l158.72 102.4c0-5.12 0-15.36 5.12-20.48 10.24-20.48 25.6-40.96 40.96-51.2 10.24-56.32 56.32-97.28 112.64-97.28h209.92v-66.56c0-20.48 15.36-35.84 35.84-35.84 20.48 0 35.84 15.36 35.84 35.84V332.8c5.12 25.6-10.24 40.96-30.72 40.96z m-266.24-235.52c5.12 0 10.24 5.12 15.36 5.12 5.12 0 5.12 5.12 10.24 5.12 5.12 5.12 10.24 5.12 15.36 10.24l5.12 5.12c5.12 5.12 10.24 10.24 15.36 20.48v5.12c5.12 5.12 5.12 10.24 10.24 20.48v5.12h153.6V128h-209.92c-10.24 0-15.36 5.12-25.6 10.24 5.12-5.12 10.24-5.12 10.24 0z m-30.72 143.36c20.48 0 35.84-15.36 35.84-35.84 0-5.12 0-10.24-5.12-15.36v-5.12c-5.12-5.12-5.12-10.24-10.24-10.24-5.12-5.12-10.24-5.12-15.36-5.12h-15.36c-5.12 0-10.24 5.12-15.36 10.24-10.24 10.24-15.36 25.6-10.24 40.96 5.12 10.24 20.48 20.48 35.84 20.48z m158.72 322.56L512 394.24c-15.36 15.36-30.72 20.48-46.08 30.72-56.32 30.72-117.76 25.6-168.96-5.12-71.68-40.96-117.76-76.8-143.36-97.28l-51.2 35.84L727.04 742.4c15.36 10.24 30.72 5.12 40.96-5.12l81.92-133.12z"  horiz-adv-x="1024" />

    
    <glyph glyph-name="zu" unicode="&#58987;" d="M858.464709 80.965262a23.40528 23.40528 0 1 0-33.279382-32.986816L680.584584 192.432906a23.332138 23.332138 0 0 0 0.511991 33.206241 24.356119 24.356119 0 0 0 33.498806 0zM794.685322 895.980983a194.190679 194.190679 0 0 0 45.494013-4.754197 204.064782 204.064782 0 0 0 44.396889-13.384894 39.423268 39.423268 0 0 0 20.333337-51.637899 42.93406 42.93406 0 0 0-8.118706-12.287771c-29.841732-29.914873-59.683463-59.464039-89.378912-89.378912l5.046764-17.919667 4.461631-18.139092 18.504799-5.046763 17.846526-4.754198c29.622307 29.914873 59.53718 59.244614 89.378911 89.378912a39.569551 39.569551 0 0 0 55.880106 0 40.300966 40.300966 0 0 0 9.508394-16.676262 201.431688 201.431688 0 0 0 11.995206-39.715834v-0.585132a236.247041 236.247041 0 0 0 4.461632-45.85972 231.419702 231.419702 0 0 0-67.509604-162.593551 228.932891 228.932891 0 0 0-162.52041-67.290179h-13.384894l-43.8849-43.007202 239.61155-239.684691 1.974821-2.194245a161.935278 161.935278 0 0 0-1.974821-227.104354l-0.51199-0.585132a161.496429 161.496429 0 0 0-113.881314-46.956842 159.59475 159.59475 0 0 0-114.539587 47.468833l-239.904116 240.416106-244.950879-245.46287a142.845347 142.845347 0 0 0-163.398109-33.718231 160.106741 160.106741 0 0 0-51.711039 34.961637 166.762617 166.762617 0 0 0-34.669071 51.199049 142.552781 142.552781 0 0 0 34.010797 163.398108v0.585132l273.110357 273.183498-99.838146 99.911288-88.866921 26.477222a39.130702 39.130702 0 0 0-25.160676 21.94245L21.287114 755.841872a39.203843 39.203843 0 0 0 7.31415 45.859719l35.839334 35.400486 35.181061 35.181061A38.838136 38.838136 0 0 0 142.628861 880.621268l202.236244-86.306968a38.618711 38.618711 0 0 0 22.308157-25.160676l26.184656-88.866921 99.984429-99.911287 71.824952 71.23982c0 5.046763-0.51199 9.800961-0.51199 13.384894A229.006033 229.006033 0 0 0 632.018629 828.178814 229.956872 229.956872 0 0 0 794.685322 895.980983zM681.901131 336.814225L564.070177 218.98327l239.61155-239.684691a83.235026 83.235026 0 0 1 117.830954 0h0.511991a84.40529 84.40529 0 0 1 1.023981 116.221841zM375.584534 463.056452l61.731425 61.438859-107.006012 107.298579a40.593532 40.593532 0 0 0-10.678659 19.601921l-23.039572 78.407687-160.911298 67.948452-16.529979-16.164271-16.529978-16.822545 68.387301-160.911297 81.040781-23.770987a35.107919 35.107919 0 0 0 16.822545-10.312951z m413.32261 354.151137a152.719449 152.719449 0 0 1-146.282998-151.914893h0.511991V654.614037l1.170264-9.215829a38.911277 38.911277 0 0 0-10.678659-35.546768L102.693602 78.990442a69.557565 69.557565 0 0 1-17.334535-77.968838 96.181071 96.181071 0 0 1 18.139092-26.257798 89.452053 89.452053 0 0 1 26.84293-18.139092 67.802169 67.802169 0 0 1 77.383706 17.041969l272.086375 272.086376 1.170264 1.097122L653.814796 420.561241l1.170264 1.46283 83.235025 82.649894a37.229023 37.229023 0 0 0 33.206241 11.410073 79.870517 79.870517 0 0 1 11.70264-1.097122 99.984429 99.984429 0 0 1 11.190649-0.585132 153.158298 153.158298 0 0 1 107.225437 43.884899v0.585132a149.79379 149.79379 0 0 1 43.884899 101.666684c-17.041969-17.334535-34.010797-34.083938-51.199049-51.637899a40.447249 40.447249 0 0 0-39.642692-11.995205l-39.642692 10.898083-40.227825 10.898083a38.472428 38.472428 0 0 0-28.013194 27.940053l-10.678659 40.227824-10.824941 40.227824a38.399287 38.399287 0 0 0 10.312951 37.155882z m0 0"  horiz-adv-x="1024" />

    
    <glyph glyph-name="jiankong6" unicode="&#59756;" d="M37.647059 895.698824a37.406118 37.406118 0 0 1-26.50353-10.842353 37.406118 37.406118 0 0 1-10.842353-26.50353v-669.394823c0-9.818353 3.855059-19.636706 10.842353-26.563765 6.927059-6.987294 16.444235-10.842353 26.50353-10.842353h95.713882a37.406118 37.406118 0 0 1 29.093647 13.673412L370.447059 423.152941l94.870588-78.305882c15.480471-12.649412 37.345882-11.083294 51.079529 3.312941l184.32 199.258353c18.010353-11.083294 38.851765-16.986353 61.31953-16.986353a119.446588 119.446588 0 0 1 119.085176 119.085176 119.145412 119.145412 0 0 1-119.085176 119.085177 119.446588 119.446588 0 0 1-119.085177-119.085177c0-16.022588 3.312941-30.72 8.734118-45.17647L484.894118 424.357647l-96.617412 80.112941a35.418353 35.418353 0 0 1-27.346824 8.252236 38.671059 38.671059 0 0 1-25.298823-13.613177l-220.099765-272.745412h-41.261176V821.729882h888.530823v-595.425882H510.614588a37.406118 37.406118 0 0 1-26.503529-10.842353 37.406118 37.406118 0 0 1-10.842353-26.503529v-182.272H255.397647a38.309647 38.309647 0 0 1-26.503529-10.842353 37.888 37.888 0 0 1 0-53.12753c6.927059-6.927059 16.444235-10.782118 26.503529-10.782117h499.772235a37.406118 37.406118 0 0 1 26.563765 10.842353 37.406118 37.406118 0 0 1 10.842353 26.503529 37.406118 37.406118 0 0 1-10.842353 26.563765 37.406118 37.406118 0 0 1-26.503529 10.842353H548.201412v144.865882h452.186353a37.888 37.888 0 0 1 26.503529 10.842353 37.406118 37.406118 0 0 1 10.842353 26.503529V858.413176a37.345882 37.345882 0 0 1-37.104941 37.345883H37.647059z m724.871529-201.306353c24.756706 0 44.333176-19.877647 44.333177-44.333177a44.453647 44.453647 0 1 0-75.776-31.442823 44.453647 44.453647 0 0 0-12.890353 31.442823 44.152471 44.152471 0 0 0 44.333176 44.333177"  horiz-adv-x="1084" />

    
    <glyph glyph-name="kefu" unicode="&#59026;" d="M466.6 829.8C748.8 857.5 984.1 623.2 958 341.3c-19.1-206.5-182.8-375.7-388.7-401.7-104.7-13.2-202.9 10.5-284.8 58.9l-125.6-43.3c-13.3-4.6-26.6 7-23.9 20.8l25.4 131C90 196.2 52.3 312.6 67.2 438.2 91.7 644.4 259.9 809.4 466.6 829.8z m0.6-401c-24.7 0-44.8-20.1-44.8-44.8 0-24.7 20.1-44.8 44.8-44.8H736c24.7 0 44.8 20.1 44.8 44.8 0 24.7-20.1 44.8-44.8 44.8H467.2zM288 339.2c24.7 0 44.8 20.1 44.8 44.8 0 24.7-20.1 44.8-44.8 44.8-24.7 0-44.8-20.1-44.8-44.8 0-24.7 20.1-44.8 44.8-44.8z"  horiz-adv-x="1024" />

    
    <glyph glyph-name="ceshi" unicode="&#58995;" d="M870.1 333.6v25.5c2 116.5-32.2 214.5-99.6 284-32.2 33.2-71 58.2-116 75.6-7.2 62.8-74.6 112.4-156.8 112.4-82.2 0-150.2-49.5-156.8-112.4-45-17.4-83.8-42.4-116-75.6-67.4-69.5-101.7-167-99.6-283.5v-31.2c-17.4-17.9-31.2-44.4-20.9-82.2 7.7-28.1 28.1-48.5 53.1-57.7 12.8-8.2 27.6-12.8 43.9-12.8 32.2-141 148.1-237 299.9-237 151.7 0 267.7 96 299.9 237.5 1 0 2-0.5 3.1-0.5 19.9 0 38.3 7.2 53.1 18.9 18.9 10.7 33.7 29.1 39.8 52.1 10.7 41-7.2 69.1-27.1 86.9z m-88.9-77.1c0-18.9-1.5-36.8-4.1-54.1-49.5-79.7-131.3-131.8-232.9-143-7.7 10.2-23 16.9-40.9 16.9-25.5 0-46-13.8-46-31.2 0-16.9 20.4-31.2 46-31.2 23 0 41.4 11.2 45.5 26.1 32.7 3.6 63.9 11.7 93.5 23.5 41.9 16.9 78.7 41.9 109.8 73.6 5.1 5.1 9.7 10.2 14.3 15.8-36.8-113-135.4-185.5-263.6-185.5h-1c-165 0-279.9 119-279.9 289.1l-0.5 16.3c0 7.2 1 26.6 2 45 68.5 25 130.3 120.6 155.3 164.5 23-31.2 75.6-91.4 156.3-122.6 30.1-11.7 60.8-17.9 90.9-24.5 59.8-12.8 116.5-25 154.8-75.1l1.5-1.5-1-2.1z m0 0"  horiz-adv-x="1024" />

    
    <glyph glyph-name="guanlihoutai1" unicode="&#58919;" d="M384 896H85.333C38.4 896 0 857.6 0 810.667V512c0-46.933 38.4-85.333 85.333-85.333H384c46.933 0 85.333 38.4 85.333 85.333V810.667C469.333 857.6 430.933 896 384 896z m0-405.333v-21.334 21.334z m0-149.334H85.333C38.4 341.333 0 302.933 0 256v-298.667C0-89.6 38.4-128 85.333-128H384c46.933 0 85.333 38.4 85.333 85.333V256c0 46.933-38.4 85.333-85.333 85.333z m0-413.866v-12.8 12.8z m554.667 413.866H640c-46.933 0-85.333-38.4-85.333-85.333v-298.667c0-46.933 38.4-85.333 85.333-85.333h298.667c46.933 0 85.333 38.4 85.333 85.333V256c0 46.933-38.4 85.333-85.333 85.333z m27.733 403.2h-29.867c-2.133 2.134-4.266 6.4-4.266 8.534l17.066 29.866c14.934 27.734 6.4 64-21.333 81.067L889.6 887.467C876.8 896 861.867 898.133 846.933 893.867S819.2 878.933 810.667 866.133L795.733 838.4H787.2l-14.933 27.733C763.733 881.067 750.933 889.6 736 893.867c-14.933 4.266-29.867 2.133-42.667-6.4L654.933 864c-25.6-17.067-36.266-53.333-21.333-81.067l17.067-29.866c-2.134-2.134-4.267-6.4-4.267-8.534h-29.867c-32 0-57.6-27.733-57.6-59.733v-46.933c0-32 25.6-59.734 57.6-59.734H646.4c2.133-2.133 4.267-6.4 4.267-8.533L633.6 539.733c-14.933-27.733-6.4-64 21.333-81.066l38.4-23.467c8.534-6.4 19.2-8.533 29.867-8.533 4.267 0 10.667 0 14.933 2.133 14.934 4.267 27.734 14.933 36.267 27.733l14.933 27.734h8.534l14.933-27.734c8.533-14.933 21.333-23.466 36.267-27.733 14.933-4.267 29.866-2.133 42.666 6.4l38.4 23.467c25.6 17.066 36.267 53.333 21.334 81.066L934.4 569.6c2.133 2.133 4.267 6.4 4.267 8.533h29.866c32 0 57.6 27.734 57.6 59.734V684.8c-2.133 32-27.733 59.733-59.733 59.733zM789.333 576C742.4 576 704 614.4 704 661.333s38.4 85.334 85.333 85.334 85.334-38.4 85.334-85.334S836.267 576 789.333 576z"  horiz-adv-x="1026" />

    
    <glyph glyph-name="guanlihoutai2" unicode="&#58932;" d="M384 896H85.333C38.4 896 0 857.6 0 810.667V512c0-46.933 38.4-85.333 85.333-85.333H384c46.933 0 85.333 38.4 85.333 85.333V810.667C469.333 857.6 430.933 896 384 896z m0-411.733v-14.934 14.934zM938.667 896H640c-46.933 0-85.333-38.4-85.333-85.333V512c0-46.933 38.4-85.333 85.333-85.333h298.667c46.933 0 85.333 38.4 85.333 85.333V810.667C1024 857.6 985.6 896 938.667 896zM384 341.333H85.333C38.4 341.333 0 302.933 0 256v-298.667C0-89.6 38.4-128 85.333-128H384c46.933 0 85.333 38.4 85.333 85.333V256c0 46.933-38.4 85.333-85.333 85.333z m0-426.666v42.666-42.666z m554.667 426.666H640c-46.933 0-85.333-38.4-85.333-85.333v-298.667c0-46.933 38.4-85.333 85.333-85.333h298.667c46.933 0 85.333 38.4 85.333 85.333V256c0 46.933-38.4 85.333-85.333 85.333z"  horiz-adv-x="1024" />

    
    <glyph glyph-name="kefu1" unicode="&#58917;" d="M463.573 859.52c301.014 29.547 552-220.373 524.16-521.067-20.373-220.266-194.986-400.746-414.613-428.48-111.68-14.08-216.427 11.2-303.787 62.827L135.36-73.387c-14.187-4.906-28.373 7.467-25.493 22.187l27.093 139.733C61.867 183.68 21.653 307.84 37.547 441.813 63.68 661.76 243.093 837.76 463.573 859.52z m0.64-427.733c-26.346 0-47.786-21.44-47.786-47.787 0-26.347 21.44-47.787 47.786-47.787h286.72c26.347 0 47.787 21.44 47.787 47.787 0 26.347-21.44 47.787-47.787 47.787h-286.72z m-191.146-95.574c26.346 0 47.786 21.44 47.786 47.787 0 26.347-21.44 47.787-47.786 47.787-26.347 0-47.787-21.44-47.787-47.787 0-26.347 21.44-47.787 47.787-47.787z"  horiz-adv-x="1024" />

    
    <glyph glyph-name="hexin" unicode="&#59084;" d="M899.84 393.143c99.84 122.148 80.457 202.24 59.977 239.177-41.691 75.337-141.165 92.526-258.925 73.143C661.394 817.737 598.126 896 512.183 896S362.972 817.737 323.109 705.097l-23.04 4.023c-156.526 20.114-215.772-38.4-235.155-75.337C24.32 561.006 58.332 471.406 132.206 384l-8.046-9.509C24.32 252.71 43.703 172.617 64.183 135.68c31.451-56.32 93.257-80.823 174.446-80.823a498.469 498.469 0 0 1 84.48 8.046C362.606-49.737 425.874-128 512.183-128s148.846 78.263 188.709 190.903l23.04-4.023a538.331 538.331 0 0 1 60.708-4.023c111.543 0 156.526 47.909 174.446 79.36 40.594 73.143 6.583 162.377-67.292 249.417zM785.006 603.429c43.154 0 70.948-9.509 78.628-23.406s-2.194-59.612-48.64-117.029c-22.674 19.749-46.811 38.766-73.142 57.417-3.292 27.063-7.315 53.395-12.435 79.36a397.897 397.897 0 0 0 55.589 3.658zM573.989 274.286c-21.212-12.069-42.057-22.309-62.172-31.817-20.845 9.874-41.325 20.48-62.171 31.817s-43.154 25.6-62.903 36.571c0 23.406-2.56 47.543-2.56 73.143s0 50.103 2.56 73.143c20.114 13.166 41.326 25.966 63.269 36.571s42.057 22.309 62.171 31.817c20.846-9.874 41.691-20.48 62.171-31.817s43.52-25.6 62.903-38.4c1.829-23.405 2.926-47.543 2.926-73.143s0-50.102-2.926-73.142c-20.114-12.069-40.96-24.869-63.268-36.938z m-61.806 512c21.943 0 54.857-36.572 81.92-109.715-27.063-8.777-54.491-18.651-81.554-29.988-25.966 13.166-55.223 23.406-82.286 29.988 26.697 73.143 59.611 109.715 81.92 109.715zM160.732 580.389c7.314 12.8 33.28 23.04 78.262 23.04a378.88 378.88 0 0 0 46.812-3.292h8.777c-4.754-25.6-9.143-52.297-12.434-79.36a882.834 882.834 0 0 1-73.143-57.051c-43.886 53.76-58.514 98.011-48.274 116.663z m0-391.68c-9.509 16.822 2.194 59.611 48.64 117.028 22.674-19.748 46.811-38.766 73.142-57.417 3.292-27.063 7.315-53.76 12.435-79.36-75.337-10.24-123.977 0.366-134.583 19.749z m351.451-206.995c-22.309 0-55.223 36.572-82.286 109.715 27.063 8.411 54.126 19.017 81.555 30.354q41.691-17.554 82.285-30.72c-26.697-72.777-59.611-109.349-81.554-109.349z m351.086 205.897c-9.509-16.457-51.566-29.257-125.075-19.748h-8.777c5.12 25.6 9.143 52.297 12.435 79.36q37.302 27.063 73.874 58.514c43.154-55.223 57.783-99.474 47.543-118.126z"  horiz-adv-x="1024" />

    
    <glyph glyph-name="password" unicode="&#59045;" d="M735.2576 517.888h-37.10976V595.3536c0 108.62592-82.06848 193.98656-186.09152 193.98656-104.29952 0-186.25024-85.36576-186.25024-193.98656v-77.52192h-37.21728c-40.95488 0-74.43456-34.8928-74.43456-77.57312v-387.7632c0-42.57792 33.4848-77.57312 74.43456-77.57312h446.67392c41.00608 0 74.5472 34.944 74.5472 77.57312V440.31488c0 42.68032-33.54112 77.57312-74.5472 77.57312z m-223.2064-348.97408c-41.05728 0-74.5472 34.8928-74.5472 77.57312 0 42.62912 33.4848 77.57312 74.5472 77.57312 40.84224 0 74.38336-34.944 74.38336-77.57312 0-42.73664-33.54112-77.57312-74.38336-77.57312z m115.33824 348.97408H396.55936V595.3536c0 65.9968 52.096 120.25856 115.49184 120.25856 63.23712 0 115.33312-54.25664 115.33312-120.25856v-77.4656z"  horiz-adv-x="1024" />

    
    <glyph glyph-name="yunwei5" unicode="&#58887;" d="M400.384 557.184c221.12 0 400.448 55.424 400.448 123.2V772.8C800.832 841.088 621.44 896 400.384 896 179.328 896 0 841.216 0 772.8v-92.416c0-67.776 179.2-123.2 400.384-123.2z m0-307.968c26.496 0 52.352 0.512 77.696 2.432L512 285.44a268.032 268.032 0 0 0 19.072 155.2c-40.704-4.288-84.992-6.784-130.56-6.784-100.992 0-193.408 11.072-263.68 30.72C52.992 487.04 0 520.32 0 557.248V372.48c0-67.776 179.2-123.2 400.384-123.2z m-81.28-155.904l33.92 33.92c-82.56 2.368-157.12 12.928-216.192 29.568C52.992 179.008 0 212.224 0 249.216v-184.832c0-63.424 155.84-115.84 356.608-122.496l-37.632 37.568c-31.36 31.36-31.36 82.56 0.128 113.92z m665.088 262.272c-0.896 7.68-10.688 10.624-16.192 5.12l-96.768-96.768a75.648 75.648 0 0 0-107.072 0l-53.44 53.568a75.648 75.648 0 0 0 0 107.008l96.64 96.704c5.568 5.504 2.432 15.168-5.12 16.192a208.192 208.192 0 0 1-200.512-94.912 207.104 207.104 0 0 1-22.144-175.936L362.88 49.92a18.944 18.944 0 0 1 0-26.688l107.072-107.072a18.944 18.944 0 0 1 26.688 0l216.704 216.704a208 208 0 0 1 270.848 222.72z"  horiz-adv-x="1024" />

    
    <glyph glyph-name="kefufuwudianhua" unicode="&#58926;" d="M986.862933 92.296533l-0.341333 1.365334a354.474667 354.474667 0 0 1-179.780267 224.392533 96.802133 96.802133 0 0 1 96.836267 95.675733l0.546133 63.3856a96.392533 96.392533 0 0 1-95.812266 96.938667h-10.205867V635.972267c0 143.36-117.111467 259.9936-261.0176 259.9936H451.242667C307.3024 896 190.190933 779.332267 190.190933 636.0064v-59.733333a96.3584 96.3584 0 0 1-96.0512-96.119467v-63.419733a96.802133 96.802133 0 0 1 96.836267-96.4608h5.051733C77.346133 260.539733 0 137.966933 0 4.334933a106.734933 106.734933 0 0 1 106.837333-106.3936h784.384c58.9824 0 106.837333 47.786667 106.837334 106.3936 0 30.139733-3.822933 59.630933-11.195734 87.9616z m-178.858666 431.957334c25.634133-0.238933 46.353067-21.230933 46.148266-46.762667l-0.546133-63.453867a47.2064 47.2064 0 0 0-47.3088-46.318933l-13.448533 0.1024c3.4816 16.861867 5.256533 34.167467 5.256533 52.0192v104.516267l9.898667-0.1024zM451.242667 846.165333h85.845333c116.4288 0 211.1488-94.3104 211.1488-210.3296v-216.132266c0-11.707733-1.024-23.108267-2.798933-34.269867a0.853333 0.853333 0 0 1-0.238934-0.443733c-13.789867-24.6784-55.569067-76.9024-167.560533-92.7744a62.1568 62.1568 0 0 1-61.781333 69.563733h-16.9984a62.1568 62.1568 0 0 1-62.190934-61.986133c0-34.133333 27.886933-61.952 62.190934-61.952h17.066666c1.3312 0 2.6624 0.136533 3.8912 0.136533 73.079467 1.4336 127.419733 15.598933 167.799467 34.372267a210.944 210.944 0 0 0-150.528-62.976H451.242667c-116.462933 0-211.182933 94.344533-211.182934 210.3296v83.285333l203.8784 67.8912 18.500267-56.9344a47.274667 47.274667 0 0 1 65.467733-28.023467l124.7232 59.050667a24.814933 24.814933 0 0 1 11.776 33.143467 25.019733 25.019733 0 0 1-33.28 11.741866l-122.0608-57.821866-18.397866 56.593066a47.445333 47.445333 0 0 1-60.074667 30.242134L239.957333 555.485867V635.904c0.1024 116.0192 94.8224 210.3296 211.285334 210.3296z m56.0128-558.523733h-8.533334a12.356267 12.356267 0 0 0-12.1856 12.151467c0 6.587733 5.597867 12.1856 12.219734 12.1856h17.032533c6.621867 0 12.219733-5.597867 12.219733-12.1856a12.288 12.288 0 0 0-10.888533-12.049067c-3.140267-0.1024-6.485333-0.1024-9.864533-0.1024zM144.042667 416.699733v63.453867c0 25.429333 20.753067 46.08 46.1824 46.318933v-106.734933c0-17.066667 1.706667-33.723733 4.8128-49.800533h-4.130134a46.830933 46.830933 0 0 0-46.865066 46.762666z m747.246933-469.0944H106.8032c-31.402667 0-56.9344 25.463467-56.9344 56.7296 0 119.227733 71.748267 228.317867 180.3264 277.1968a261.154133 261.154133 0 0 1 220.910933-121.685333h85.845334a261.154133 261.154133 0 0 1 223.061333 125.1328c0.2048-0.1024 0.443733-0.1024 0.546133-0.2048 3.720533-1.570133 7.304533-3.140267 10.888534-4.778667 106.7008-49.698133 176.64-156.8768 176.64-275.5584a56.661333 56.661333 0 0 0-56.832-56.832z"  horiz-adv-x="1024" />

    
    <glyph glyph-name="guanlihoutai3" unicode="&#58960;" d="M825.6 608l51.2 51.2a63.36 63.36 0 0 1-89.6 89.6l-51.2-51.2c-44.8 32-102.4 57.6-160 64V832a64 64 0 1 1-128 0v-70.4c-57.6-12.8-115.2-32-160-64l-44.416 47.552a64 64 0 0 1-92.032 1.6l-3.84-3.84a64 64 0 0 1 0-90.56L198.4 601.6c-32-38.4-57.6-96-64-153.6H64a64 64 0 1 1 0-128h70.4c12.8-57.6 32-115.2 64-160l-51.2-51.2a63.36 63.36 0 0 1 89.6-89.6l51.2 51.2c44.8-32 102.4-57.6 160-64V-64a64 64 0 0 1 128 0v70.4c57.6 12.8 115.2 32 160 64l51.2-51.2a63.36 63.36 0 0 1 89.6 89.6l-51.2 51.2c32 44.8 57.6 102.4 64 160H960a64 64 0 0 1 0 128h-70.4c-6.4 57.6-32 115.2-64 160zM512 192c-108.8 0-192 83.2-192 192s83.2 192 192 192 192-83.2 192-192-83.2-192-192-192z"  horiz-adv-x="1024" />

    
    <glyph glyph-name="yunwei6" unicode="&#59168;" d="M954.036 64.575H107.933C48.556 64.575 0.249 112.883 0.249 172.259V787.602C0.25 846.98 48.556 895.288 107.933 895.288h846.102c59.375 0 107.686-48.307 107.686-107.686v-615.343c0-59.376-48.309-107.683-107.685-107.683zM107.933 833.755c-25.447 0-46.149-20.703-46.149-46.152V172.26c0-25.447 20.703-46.152 46.149-46.152h846.102c25.448 0 46.15 20.706 46.15 46.152V787.602c0 25.45-20.703 46.151-46.15 46.151H107.933v0.001z m923.02-960.628H31.017c-16.994 0-30.768 13.776-30.768 30.768s13.774 30.767 30.768 30.767h999.936c16.992 0 30.768-13.775 30.768-30.767 0-16.994-13.776-30.768-30.768-30.768zM778.995 531.57l-51.137 6.272a201.966 201.966 0 0 1-16.053 39.94l31.745 40.62c7.669 9.812 5.64 25.262-4.124 35.027l-33.057 33.06c-9.767 9.765-25.22 11.791-35.03 4.124l-39.466-30.841a202.295 202.295 0 0 1-40.904 17.49l-6.095 49.687c-1.516 12.358-13.875 21.851-27.684 21.851h-46.754c-13.81 0-26.167-9.492-27.685-21.851l-5.953-48.539a202.25 202.25 0 0 1-42.17-17.159l-38.705 30.25c-9.81 7.668-25.265 5.642-35.03-4.124l-33.058-33.06c-9.764-9.765-11.792-25.216-4.125-35.027l30.022-38.414a202.35 202.35 0 0 1-17.446-42.05l-48.91-5.998c-12.361-1.518-21.853-13.876-21.853-27.685v-46.754c0-13.808 9.492-26.168 21.852-27.682l49.298-6.048a202.203 202.203 0 0 1 17.22-41.03l-31.07-39.755c-7.668-9.81-5.642-25.264 4.121-35.027l33.06-33.059c9.766-9.769 25.217-11.794 35.03-4.124l40.299 31.493a202.4 202.4 0 0 1 39.846-16.312l6.318-51.516c1.518-12.36 13.876-21.856 27.686-21.854h46.752c13.808-0.001 26.168 9.495 27.686 21.854l6.364 51.904a202.481 202.481 0 0 1 38.833 16.075l41.633-32.537c9.814-7.668 25.266-5.64 35.027 4.127l33.06 33.055c9.769 9.77 11.792 25.22 4.124 35.032l-32.305 41.338a202.235 202.235 0 0 1 16.347 38.711l52.292 6.414c12.363 1.515 21.854 13.876 21.85 27.686l0.003 46.75c0 13.81-9.493 26.172-21.854 27.686zM533.19 371.81c-60.382 0-109.33 48.948-109.33 109.326 0 60.38 48.948 109.328 109.33 109.328 60.379 0 109.323-48.946 109.323-109.328 0-60.379-48.945-109.326-109.323-109.326z"  horiz-adv-x="1061" />

    
    <glyph glyph-name="hangwei2" unicode="&#58929;" d="M704 0a64 64 0 0 0 0-128H320a64 64 0 0 0 0 128h384z m128 832a128 128 0 0 0 128-128v-448a128 128 0 0 0-128-128H192a128 128 0 0 0-128 128V704a128 128 0 0 0 128 128h640zM374.4 503.232L192 409.344V256h640V417.536L566.4 311.232l-192 192zM832 704H192v-153.664l201.6 98.432 192-192L832 555.392V704z"  horiz-adv-x="1024" />

    
    <glyph glyph-name="jiankong7" unicode="&#59198;" d="M512-128a512 512 0 1 0 512 512 512 512 0 0 0-512-512z m-87.04 296.96h174.08a15.36 15.36 0 0 1 0 30.72H424.96a15.36 15.36 0 0 1 0-30.72z m87.04 419.8912a179.6608 179.6608 0 1 1 179.2-179.6608 179.42016 179.42016 0 0 1-179.2 179.6608z m0-236.3904a56.7296 56.7296 0 1 0 56.6272 56.7296A56.65792 56.65792 0 0 0 512 352.4608z m0 85.0944a28.3648 28.3648 0 1 1 28.3136-28.3648 28.30848 28.30848 0 0 1-28.3136 28.3648z"  horiz-adv-x="1024" />

    
    <glyph glyph-name="hexinxitong" unicode="&#59040;" d="M31.412932 879.728922C44.809624 889.725113 61.555489 894.986266 78.250025 894.793784 408.907068 894.806617 739.56411 894.806617 1070.221153 894.793784 1089.032982 895.07609 1107.857644 888.300752 1121.985764 875.853634 1137.910376 862.161805 1147.572932 841.733133 1148.471178 820.791178v-659.081303c-0.859749-18.272882-8.212531-36.199298-20.800802-49.518998-14.294937-15.398496-35.108571-24.509273-56.127519-24.355288H89.773233c-8.982456 0.102657-18.067569-0.513283-26.934536 1.29604-23.00792 4.170426-43.577744 19.581754-54.177043 40.395389C3.464662 139.343559 0.92391 150.314987 0 161.324912V821.124812C1.257544 844.030075 12.76792 866.216742 31.412932 879.728922M698.629774 750.227569c-5.825764-1.437193-10.984261-4.81203-15.141854-9.072281-29.05183-29.090326-58.16782-58.103659-87.181153-87.219649-9.380251-9.290426-11.972331-24.560602-6.120902-36.391779 2.245614-4.760702 6.120902-8.430677 9.816541-12.08782 28.050927-28.025263 56.063358-56.063358 84.114286-84.088621 6.005414-6.10807 14.346266-10.163008 23.020752-9.893534 8.26386-0.06416 16.219749 3.734135 21.917193 9.598396 29.321303 29.295639 58.60411 58.60411 87.925413 87.899749 12.947569 11.189574 12.986065 33.016942 0.55178 44.604311-29.539449 29.539449-59.053233 59.117393-88.64401 88.618346-7.814737 7.699248-19.645915 10.85594-30.258046 8.032882m-309.48411-44.463158c-13.345363-1.950476-24.226967-14.37193-24.265463-27.896942-0.141153-40.241404-0.089825-80.482807-0.025665-120.724211-0.295138-15.526817 13.44802-29.834586 29.11599-29.500952 40.202907 0 80.392982-0.06416 120.59589 0.038496 15.411328 0.166817 28.833684 14.269273 28.589875 29.616441 0.038496 39.740952 0.025664 79.481905 0 119.222857 0.30797 12.665263-8.828471 24.547769-20.864963 28.12792-6.236391 1.783659-12.793584 1.501353-19.209624 1.527018-35.955489-0.012832-71.910977-0.012832-107.866466 0-2.027469-0.025664-4.067769-0.102657-6.069574-0.410627m1.321704-237.534637c-14.230777-1.334536-25.997794-14.654236-25.612832-28.949172-0.115489-38.971028-0.012832-77.942055-0.051328-116.925915-0.051328-4.74787 0.295138-9.62406 2.155789-14.076792 4.324411-10.689123 15.385664-18.388371 27.024361-18.106065 40.202907 0 80.405815-0.076992 120.608722 0.038496 15.000702 0.012832 28.461554 13.358195 28.538547 28.371729 0.102657 40.177243 0.038496 80.367318 0.025664 120.544562 0.256642 12.434286-8.57183 24.098647-20.313183 27.858446-6.403208 2.168622-13.255539 1.270376-19.876892 1.450025-37.495338-0.128321-75.016341 0.269474-112.498848-0.205314m237.470477-0.076992c-14.038296-1.642506-25.702657-14.795388-25.356191-29.000501 0.012832-40.202907-0.038496-80.405815 0.025664-120.608722 0.051328-15.129023 13.75599-28.384561 28.80802-28.346065 40.151579-0.089825 80.31599-0.038496 120.480401-0.025664 12.934737-0.269474 25.112381 9.405915 28.102256 21.917193 0.975238 3.785464 0.872581 7.724912 0.885414 11.587368-0.076992 38.98386 0.076992 77.954887-0.076993 116.938747-0.153985 14.98787-13.832982 28.153584-28.80802 27.807118-41.344962-0.153985-82.728421 0.384962-124.060551-0.269474zM492.610727 61.837794c8.02005 1.796491 16.28391 1.770827 24.470777 1.706667 40.639198-0.012832 81.278396 0.012832 121.917594-0.012832 13.255539 0.06416 26.498246-3.297845 38.05995-9.803709 23.713684-12.973233 39.42015-39.214837 39.42015-66.277694 0.025664-21.288421-0.012832-42.56401 0.012832-63.852432 51.610627-0.025664 103.221253 0 154.83188-0.012832 9.367419 0.37213 18.747669-4.593885 23.392882-12.806416 5.350977-8.969624 4.388571-21.1601-2.348271-29.154486-4.516892-5.723108-11.600201-8.789975-18.722005-9.62406H276.916291c-7.185965 0.449123-14.397594 3.259348-19.171128 8.789975-6.954987 7.558095-8.533333 19.402105-3.849624 28.525714 4.19609 8.712982 13.653333 14.423258 23.303057 14.243609 51.469474 0.06416 102.938947 0 154.408422 0.025664 0.025664 20.864962-0.025664 41.729925 0.025664 62.594888-0.06416 15.206015 4.4399 30.41203 12.934737 43.038797 10.958596 16.553383 28.577043 28.564211 48.043308 32.619147z"  horiz-adv-x="1148" />

    
    <glyph glyph-name="hangwei3" unicode="&#59043;" d="M841.953-62.956c64.525 104.375 100.255 225.588 100.255 345.29 0 52.752-5.424 104.372-18.705 154.312-9.726 34.415-37.967 61.539-74.819 61.539-22.257 0-42.46-9.716-56.114-25.26v6.556c0 41.337-33.481 74.819-74.819 74.819-41.337 0-74.819-33.482-74.819-74.82v37.41c0 41.335-33.482 74.817-74.819 74.817s-74.819-33.482-74.819-74.817V760.05c0 41.34-33.482 74.82-74.82 74.82s-74.818-33.48-74.818-74.82v-426.663c0-20.752-16.832-37.409-37.41-37.409-3.551 0-6.922 0.565-10.284 1.494l-105.687 43.02c-10.101 5.057-21.51 8.056-33.665 8.056-41.338 0-74.82-33.482-74.82-74.822 0-31.053 19.08-57.794 46.015-69.21C249.202 141.862 346.46 64.98 414.549-62.958h427.404z"  horiz-adv-x="1024" />

    
    <glyph glyph-name="caidan-zuoshiyiwujiankong" unicode="&#58888;" d="M783.906 416.017H645.461l-48.06-139.947c-3.822-13.175-21.162-15.018-28.808-3.754L418.611 478.345l-19.183-47.241c-1.98-7.51-9.625-13.244-19.25-13.244H222.48a45.056 45.056 0 0 0-44.168 35.977c-3.823 26.419 17.34 47.24 42.325 47.24h117.214l48.06 119.057c3.89 13.244 21.162 15.156 28.876 3.755l146.09-198.451 21.164 62.396a20.617 20.617 0 0 0 19.25 15.087h178.791a45.056 45.056 0 0 0 44.169-35.909c5.802-30.242-13.449-50.995-40.346-50.995M116.736 828.075c-44.169 0-82.603-37.888-82.603-83.15v-576.511c0-45.397 38.434-83.217 82.603-83.217h353.826V-44.51h-165.41a45.056 45.056 0 0 1-44.237-35.84c-3.823-26.487 17.272-47.24 42.326-47.24h415.197a45.056 45.056 0 0 1 44.237 35.908c3.823 26.42-17.271 47.24-42.325 47.24H553.097V85.265h353.757c46.149 0 82.671 37.752 82.671 83.149V744.926c3.823 45.329-34.61 83.149-80.76 83.149h-791.96z"  horiz-adv-x="1024" />

    


  </font>
</defs>
</svg>
